<?xml version="1.0" encoding="utf-8"?>
<!-- Generator: Adobe Illustrator 19.0.0, SVG Export Plug-In . SVG Version: 6.00 Build 0)  -->
<svg version="1.1" id="Layer_1" xmlns="http://www.w3.org/2000/svg" xmlns:xlink="http://www.w3.org/1999/xlink" x="0px" y="0px"
	 viewBox="0 0 315 103" style="enable-background:new 0 0 315 103;" xml:space="preserve">
<style type="text/css">
	.st0{fill-rule:evenodd;clip-rule:evenodd;fill:#666666;}
	.st1{fill-rule:evenodd;clip-rule:evenodd;fill:#D10303;}
</style>
<g id="XMLID_11_">
	<path id="XMLID_31_" class="st0" d="M136.9,52.1c0-3,0.6-5.4,1.8-7.3c1.2-1.9,2.9-2.8,5.1-2.8c2.2,0,3.8,0.8,4.9,2.4
		c1.1,1.6,1.6,4.3,1.6,8.2c0,3.4-0.6,6-1.7,8c-1.1,1.9-2.8,2.9-5,2.9c-2.2,0-3.9-0.8-5-2.3C137.5,59.5,136.9,56.5,136.9,52.1
		L136.9,52.1z M139.7,52.3c0,5.8,1.2,8.7,3.7,8.7c1.4,0,2.4-0.6,3.1-1.9c0.7-1.3,1-3.5,1-6.7c0-2.2-0.1-3.8-0.4-4.9
		c-0.3-1-0.7-1.8-1.2-2.3c-0.6-0.5-1.3-0.8-2.1-0.8C141.1,44.3,139.7,47,139.7,52.3z"/>
	<path id="XMLID_28_" class="st0" d="M152.2,52.1c0-3,0.6-5.4,1.8-7.3c1.2-1.9,2.9-2.8,5.1-2.8c2.2,0,3.8,0.8,4.9,2.4
		c1.1,1.6,1.6,4.3,1.6,8.2c0,3.4-0.6,6-1.7,8c-1.1,1.9-2.8,2.9-5,2.9c-2.2,0-3.9-0.8-5-2.3C152.7,59.5,152.2,56.5,152.2,52.1
		L152.2,52.1z M155,52.3c0,5.8,1.2,8.7,3.7,8.7c1.4,0,2.4-0.6,3.1-1.9c0.7-1.3,1-3.5,1-6.7c0-2.2-0.1-3.8-0.4-4.9
		c-0.3-1-0.7-1.8-1.2-2.3c-0.6-0.5-1.3-0.8-2.1-0.8C156.3,44.3,155,47,155,52.3z"/>
	<path id="XMLID_25_" class="st0" d="M167.4,52.1c0-3,0.6-5.4,1.8-7.3c1.2-1.9,2.9-2.8,5.1-2.8c2.2,0,3.8,0.8,4.9,2.4
		c1.1,1.6,1.6,4.3,1.6,8.2c0,3.4-0.6,6-1.7,8c-1.1,1.9-2.8,2.9-5,2.9c-2.2,0-3.9-0.8-5-2.3C168,59.5,167.4,56.5,167.4,52.1
		L167.4,52.1z M170.3,52.3c0,5.8,1.2,8.7,3.7,8.7c1.4,0,2.4-0.6,3.1-1.9c0.7-1.3,1-3.5,1-6.7c0-2.2-0.1-3.8-0.4-4.9
		c-0.3-1-0.7-1.8-1.2-2.3c-0.6-0.5-1.3-0.8-2.1-0.8C171.6,44.3,170.3,47,170.3,52.3z"/>
	<polygon id="XMLID_24_" class="st0" points="197.7,63.4 197,63.4 192.6,53 188.1,63.4 187.4,63.4 182,47.9 184.9,47.9 188.1,57.8 
		192.2,47.9 192.9,47.9 197.1,57.8 200.6,47.9 203.2,47.9 	"/>
	<path id="XMLID_21_" class="st0" d="M218.2,55.8h-11c0,1.8,0.5,3.1,1.5,4.1c0.9,0.8,2,1.3,3.3,1.3c1.5,0,2.8-0.5,3.9-1.4l1.1,1.9
		c-0.4,0.4-1.1,0.8-1.9,1.1c-1.1,0.4-2.3,0.6-3.6,0.6c-1.9,0-3.5-0.6-4.9-1.9c-1.5-1.4-2.2-3.4-2.2-5.8c0-2.5,0.8-4.5,2.3-6
		c1.4-1.4,3-2,4.8-2c2.2,0,3.9,0.6,5.1,1.8c1.2,1.2,1.8,2.7,1.8,4.7C218.4,54.7,218.3,55.3,218.2,55.8L218.2,55.8z M211.6,49.9
		c-1.2,0-2.2,0.4-3,1.2c-0.8,0.7-1.2,1.7-1.3,2.8h8.4c0-1.1-0.3-2-1-2.8C214,50.3,212.9,49.9,211.6,49.9z"/>
	<path id="XMLID_18_" class="st0" d="M224.2,62l-1.1,1.4h-1.5V41.7h3V49c0.3-0.3,0.8-0.7,1.6-1c0.8-0.3,1.6-0.4,2.3-0.4
		c2.3,0,4.2,0.7,5.7,2.2c1.4,1.4,2.2,3.3,2.2,5.5c0,2.5-0.7,4.5-2.2,6c-1.5,1.5-3.4,2.2-5.9,2.2c-0.8,0-1.6-0.1-2.4-0.4
		C225.1,62.7,224.6,62.4,224.2,62L224.2,62z M224.6,51.1v8.8c0,0.2,0.4,0.4,1.1,0.7c0.7,0.3,1.3,0.5,1.7,0.5c2.1,0,3.5-0.4,4.4-1.3
		c0.9-0.9,1.3-2.4,1.3-4.4c0-1.7-0.5-3.1-1.6-4c-1-1-2.4-1.4-4.2-1.4c-0.4,0-0.9,0.1-1.5,0.4C225.2,50.6,224.8,50.8,224.6,51.1z"/>
	<path id="XMLID_17_" class="st0" d="M246.8,63.1v-9.6c0-1.1-0.3-2-0.8-2.7c-0.6-0.7-1.3-1-2.4-1c-0.6,0-1.3,0.2-2,0.6
		c-0.7,0.4-1.2,0.8-1.5,1.3v11.3h-2.7V41.7h2.7v7.9c0.4-0.6,0.9-1,1.7-1.4c0.8-0.4,1.6-0.6,2.5-0.6c1.6,0,2.9,0.5,3.8,1.6
		c0.9,1.1,1.4,2.5,1.4,4.3v9.6H246.8z"/>
	<path id="XMLID_14_" class="st0" d="M252.4,55.5c0-2.4,0.6-4.3,1.9-5.7c1.3-1.4,2.9-2.2,5-2.2c2.2,0,3.9,0.7,5.1,2.1
		c1.2,1.4,1.8,3.3,1.8,5.8c0,2.5-0.6,4.4-1.8,5.8c-1.2,1.4-2.9,2.1-5,2.1c-2.2,0-3.9-0.7-5.1-2.1C253,59.8,252.4,57.9,252.4,55.5
		L252.4,55.5z M255.2,55.5c0,3.8,1.3,5.7,4,5.7c1.3,0,2.2-0.5,2.9-1.5c0.7-1,1.1-2.4,1.1-4.2c0-3.8-1.3-5.7-4-5.7
		c-1.2,0-2.2,0.5-2.9,1.5C255.6,52.3,255.2,53.7,255.2,55.5z"/>
	<path id="XMLID_13_" class="st0" d="M268,62.2l1-2.6c1.5,1,2.7,1.5,3.6,1.5c1.7,0,2.5-0.7,2.5-2.1c0-1-0.8-1.9-2.4-2.6
		c-1.2-0.6-2.1-1-2.5-1.3c-0.4-0.3-0.8-0.6-1.1-1c-0.3-0.4-0.6-0.8-0.7-1.2s-0.2-0.9-0.2-1.4c0-1.3,0.5-2.2,1.4-2.9
		c0.9-0.7,2.1-1.1,3.6-1.1c1.1,0,2.5,0.3,4.2,1.1l-0.8,2.5c-1.1-0.9-2.1-1.3-3.2-1.3c-0.6,0-1.2,0.2-1.6,0.5
		c-0.4,0.3-0.7,0.7-0.7,1.2c0,1,0.6,1.7,1.7,2.2l1.9,0.9c1.2,0.5,2,1.2,2.6,1.8c0.5,0.7,0.8,1.6,0.8,2.6c0,1.4-0.5,2.4-1.4,3.2
		c-1,0.8-2.3,1.2-4,1.2C270.9,63.4,269.4,63,268,62.2z"/>
	<path id="XMLID_12_" class="st0" d="M281.8,50H280v-2.1h1.8v-3.2l2.7-1v4.2h4.2V50h-4.2v7.6c0,1.3,0.2,2.2,0.6,2.7
		c0.4,0.5,1.1,0.8,2.1,0.8c0.7,0,1.4-0.2,2.2-0.5l0.4,2.4c-1.1,0.3-2.4,0.4-3.7,0.4c-1.2,0-2.2-0.4-3.1-1.3c-0.8-0.9-1.2-2-1.2-3.4
		V50z"/>
</g>
<path id="XMLID_2_" class="st1" d="M60.2,43.3c-4.1,37.6,29.7,43.4,39.3,32.6C82.6,117.8,42.9,70.4,60.2,43.3L60.2,43.3z M53.7,38.6
	c-14.6,2.1-36.3,48.6-10.6,43.3C27.3,76.2,43.2,43.3,53.7,38.6L53.7,38.6z M53.7,32.7c-5.1-2.4-23.7,4.7-25.1,19
	C32.1,44.1,41.2,33.8,53.7,32.7L53.7,32.7z M60.1,27.4c-7.8-6.1-17.1,0.9-20,2.5C47.9,20.8,59.6,22.3,60.1,27.4L60.1,27.4z
	 M67.5,25.5c5.4-4.9-2.7-14.2-10.5-6.7C59.8,17.6,69.2,16,67.5,25.5L67.5,25.5z M76.4,26.9c10.3-9.8,1.7-13.6-1-13.8
	C89.8,9.4,83.4,25.1,76.4,26.9L76.4,26.9z M78.1,32.9c10.7,4.1,42.6-13.6,17.2-17.1C101.1,17.2,102.4,28.9,78.1,32.9L78.1,32.9z
	 M70.6,41.8c7.1,20.5,70.5,18.6,43.2-9.1C119.7,42.2,105,59.1,70.6,41.8z"/>
</svg>
